<?xml version="1.0" standalone="no"?>
<?xml-stylesheet type="text/css"?> <!DOCTYPE svg PUBLIC "-//W3C//DTD SVG 1.1//EN" "http://www.w3.org/Graphics/SVG/1.1/DTD/svg11.dtd">

<svg height="83" width="93" viewBox="190 75 93 83" id="svg_logo_minimal" xmlns="http://www.w3.org/2000/svg">
  <style type="text/css">
    <![CDATA[
      svg {
          background: transparent;
          border: none;            
      }

      .trajectory-line {
          fill: none;
          stroke: #1f2c33;
          stroke-width: 7px;
      }
    ]]>
  </style>
  <polyline id="trajectoryPath" class="trajectory-line" points="210.0,146.0 210.5,142.7 211.1,139.4 211.6,136.3 212.2,133.3 212.7,130.3 213.2,127.5 213.8,124.7 214.3,122.1 214.9,119.5 215.4,117.1 215.9,114.7 216.5,112.5 217.0,110.3 217.6,108.3 218.1,106.3 218.6,104.4 219.2,102.7 219.7,101.0 220.3,99.4 220.8,98.0 221.3,96.6 221.9,95.3 222.4,94.2 223.0,93.1 223.5,92.1 224.0,91.2 224.6,90.4 225.1,89.7 225.7,89.2 226.2,88.7 226.7,88.3 227.3,88.0 227.8,87.8 228.4,87.7 228.9,87.7 229.4,87.8 230.0,88.0 230.5,88.3 231.1,88.7 231.6,89.2 232.1,89.7 232.7,90.4 233.2,91.2 233.8,92.1 234.3,93.1 234.8,94.2 235.4,95.3 235.9,96.6 236.5,98.0 237.0,99.4 237.5,101.0 238.1,102.7 238.6,104.4 239.2,106.3 239.7,108.3 240.2,110.3 240.8,112.5 241.3,114.7 241.9,117.1 242.4,119.5 242.9,122.1 243.5,124.7 244.0,127.5 244.6,130.3 245.1,133.3 245.6,136.3 246.2,139.4 246.7,142.7 247.3,146.0 247.8,146.0 248.3,143.7 248.8,141.5 249.3,139.4 249.7,137.4 250.2,135.5 250.7,133.7 251.2,131.9 251.7,130.3 252.2,128.8 252.7,127.4 253.1,126.1 253.6,124.8 254.1,123.7 254.6,122.7 255.1,121.7 255.6,120.9 256.1,120.2 256.5,119.5 257.0,119.0 257.5,118.6 258.0,118.2 258.5,118.0 259.0,117.8 259.5,117.8 259.9,117.8 260.4,118.0 260.9,118.2 261.4,118.6 261.9,119.0 262.4,119.5 262.9,120.2 263.4,120.9 263.8,121.7 264.3,122.7 264.8,123.7 265.3,124.8 265.8,126.1 266.3,127.4 266.8,128.8 267.2,130.3 267.7,131.9 268.2,133.7 268.7,135.5 269.2,137.4 269.7,139.4 270.2,141.5 270.6,143.7" />
  <circle id="bouncingDot" cx="271.1" cy="146.0" r="9" style="fill: #1f2c33;" opacity="1" />
  <circle id="initialDot" cx="201.6" cy="88.3" r="9" style="fill: #ed1b2f;" opacity="1" />
</svg>