<!DOCTYPE svg PUBLIC "-//W3C//DTD SVG 1.1//EN" "http://www.w3.org/TR/2001/REC-SVG-20010904/DTD/svg11.dtd">
<svg height="220" width="372" viewBox="0 0 372 220" xmlns="http://www.w3.org/2000/svg">
    <defs>
        <clipPath clipPathUnits="userSpaceOnUse" id="clipPath8">
            <path d="M 0,0 H 6000 V 3375 H 0 Z" transform="matrix(0.422517905886,0,0,0.422517905886,-1460.85278648,-800.515607051)" clip-rule="evenodd"></path>
        </clipPath>
    </defs>
    <g transform="matrix(0.719221263481,0,0,0.719221263481,283.775332316,-176.393342785)" style="stroke-width:1.3904">
        <path clip-path="url(#clipPath8)" style="fill:rgb(237, 27, 47);fill-opacity:1;fill-rule:nonzero;stroke:none;stroke-width:1.3904" d="M -26.8952465084,-11.084836768 V 90.8104769099 H 180.175671367 V -11.084836768 Z M 5.51051659333,16.1065022536 h 6.27175042687 v 41.137731418 h 23.3746487947 v 5.1164279798 H 5.51051659333 Z m 59.61773288127,0 h 7.1382422621 L 90.8341739214,62.3606616514 H 84.4386389467 L 79.1571649031,48.8268844146 H 58.0725302445 l -5.3227355596,13.5337772368 h -6.4986887647 z m 40.0804050714,0 h 16.814067756 c 10.851778699,0 16.277668049,3.7444825739 16.277668049,11.2231323427 0,2.7387331223 -0.763338046,5.0442203269 -2.290014136,6.9113039243 -1.526676091,1.8567682185 -3.692905679,3.1049290765 -6.498688765,3.7341671949 3.672274921,0.4280882282 6.503846454,1.6607760177 8.499872289,3.692905679 1.990868145,2.0218142823 2.991459908,4.5748705827 2.991459908,7.6540112117 0,4.1158362176 -1.500887644,7.3187613944 -4.497505241,9.61393322 -3.001775286,2.2848564467 -7.169188399,3.4247058252 -12.502239337,3.4247058252 h -18.794620523 z m -36.5938069722,4.7244435781 -0.2888306118,0.9283841092 c -0.551872776,1.8155067025 -1.3616300269,4.1416246651 -2.434429442,6.9731961983 L 59.9911907369,43.9373947726 H 77.2797659266 L 71.3381076275,28.6706338652 C 70.729500267,27.1749039115 70.1208929065,25.4677086884 69.501970167,23.5542058854 Z m 42.8655573992,0.2888306117 v 14.647838168 h 10.542317329 c 3.352498172,0 5.859135267,-0.624080429 7.509595906,-1.8773989765 1.650460639,-1.2636339264 2.475690958,-3.1977674874 2.475690958,-5.7972429932 0,-2.5014794054 -0.856176456,-4.2911976605 -2.55821399,-5.3639970756 -1.707195223,-1.0727994151 -4.182886181,-1.6091991227 -7.427072874,-1.6091991227 z m 0,19.5373278099 v 16.6902832083 h 12.192777968 c 3.821847916,0 6.607000244,-0.706603461 8.355456983,-2.1249680723 1.758772118,-1.4286799903 2.640737022,-3.5588057521 2.640737022,-6.3955349747 0,-5.4465201075 -3.832163296,-8.1697801613 -11.491332197,-8.1697801613 z" transform="matrix(0.757364320443,0,0,0.757364320443,-361.87073428,469.674556741)"></path>
        <g style="stroke-width:1.3904">
            <path style="fill: rgb(31, 44, 51); fill-opacity:1;fill-rule:nonzero;stroke:none;stroke-width:1.05303" d="m -71.6981996817,324.541008836 h -39.4375000003 c 0,3.8125 1.234375,6.640625 3.703125,8.484375 2.4765625,1.8359375 5.1640625,2.75 8.0625000002,2.75 3.0390625003,0 5.4414062496,-0.40625 7.2031249999,-1.21875 1.7695312503,-0.8125 3.7851562497,-2.421875 6.0468749997,-4.828125 l 13.5781250006,6.78125 c -5.6562500001,9.48046875 -15.0585937499,14.21875 -28.2031250004,14.21875 -8.19921875,0 -15.234375,-2.8046875 -21.109375,-8.421875 -5.8671875,-5.625 -8.796875,-12.39453125 -8.796875,-20.3125 0,-7.9140625 2.9296875,-14.703125 8.796875,-20.359375 5.875,-5.65625 12.91015625,-8.484375 21.109375,-8.484375 8.6250000001,0 15.6406249999,2.49609375 21.0468749998,7.484375 5.4062500007,4.98046875 8.1093750006,12.1015625 8.1093750006,21.359375 0,1.2734375 -0.039062496,2.12109375 -0.1093750001,2.546875 z m -38.9062500003,-10.390625 h 20.6718750004 c -0.4296875003,-2.83203125 -1.5429687501,-5.0078125 -3.3437500004,-6.53125 -1.8046875,-1.51953125 -4.1171874997,-2.28125 -6.9375,-2.28125 -3.1171875,0 -5.59375,0.8203125 -7.4375,2.453125 -1.8359375,1.625 -2.8203125,3.74609375 -2.953125,6.359375 z m 46.2148437499,28.25 c -5.0859374996,-5.55078125 -7.6249999994,-12.3515625 -7.6249999994,-20.40625 0,-8.0625 2.5390624998,-14.8828125 7.6249999994,-20.46875 5.0937500004,-5.58203125 11.5664062501,-8.375 19.4218750002,-8.375 7.2070312502,0 13.1445312498,2.26171875 17.8125000003,6.78125 v -41.984375001 h 18.76562499954 v 91.187500001 H -26.9521059322 v -6.15625 h -0.2031249994 c -4.6679687505,5.16796875 -10.6054687501,7.75 -17.8125000003,7.75 -7.8554687501,0 -14.3281249998,-2.7734375 -19.4218750002,-8.328125 z m 15.9687500003,-29.625 c -2.4374999997,2.3984375 -3.65625,5.46875 -3.65625,9.21875 0,3.7421875 1.1640625002,6.796875 3.4999999999,9.171875 2.33203125,2.3671875 5.4062499999,3.546875 9.21875,3.546875 3.6757812504,0 6.6953125003,-1.1953125 9.0624999999,-3.59375 2.3750000005,-2.40625 3.5625,-5.4453125 3.5625,-9.125 0,-3.75 -1.2265624995,-6.8203125 -3.671875,-9.21875 -2.4374999998,-2.40625 -5.421875,-3.609375 -8.9531249999,-3.609375 -3.6054687503,0 -6.6250000001,1.203125 -9.0624999999,3.609375 z"></path>
            <path style="fill: rgb(31, 44, 51);fill-opacity:1;fill-rule:nonzero;stroke:none;stroke-width:1.05303" d="m -153.448199682,294.744133836 v 54.390625 h 18.765625 v -54.390625 z"></path>
            <path style="fill: rgb(31, 44, 51);fill-opacity:1;fill-rule:nonzero;stroke:none;stroke-width:1.05303" d="m -179.639605932,349.134758836 v -91.187500001 h 18.765625 v 91.187500001 z"></path>
            <path style="fill: rgb(31, 44, 51);fill-opacity:1;fill-rule:nonzero;stroke:none;stroke-width:1.05303" d="m -190.772418432,301.478508836 c 5.09375,5.54296875 7.640625,12.34375 7.640625,20.40625 0,8.0625 -2.546875,14.88671875 -7.640625,20.46875 -5.085937499,5.5859375 -11.5546875,8.375 -19.40625,8.375 -7.2109375,0 -13.148437499,-2.265625 -17.8125,-6.796875 v 32.765625 h -18.765625 v -81.953125 h 18.5625 v 6.140625 h 0.203125 c 4.664062501,-5.15625 10.6015625,-7.734375 17.8125,-7.734375 7.8515625,0 14.320312501,2.77734375 19.40625,8.328125 z m -15.953125,29.640625 c 2.4375,-2.40625 3.65625,-5.484375 3.65625,-9.234375 0,-3.75 -1.16796875,-6.8046875 -3.5,-9.171875 -2.3359375,-2.36328125 -5.40625,-3.546875 -9.21875,-3.546875 -3.6796875,0 -6.703125,1.203125 -9.078125,3.609375 -2.3671875,2.3984375 -3.546875,5.43359375 -3.546875,9.109375 0,3.75 1.21875,6.828125 3.65625,9.234375 2.4375,2.3984375 5.42578125,3.59375 8.96875,3.59375 3.6015625,0 6.625,-1.1953125 9.0625,-3.59375 z"></path>
            <path style="fill: rgb(31, 44, 51);fill-opacity:1;fill-rule:nonzero;stroke:none;stroke-width:1.05303" d="m -257.889605932,301.478508836 c 5.09375,5.54296875 7.640625,12.34375 7.640625,20.40625 0,8.0625 -2.546875,14.88671875 -7.640625,20.46875 -5.0859375,5.5859375 -11.5546875,8.375 -19.40625,8.375 -7.2109375,0 -13.1484375,-2.265625 -17.8125,-6.796875 v 32.765625 h -18.765625 v -81.953125 h 18.5625 v 6.140625 h 0.203125 c 4.6640625,-5.15625 10.6015625,-7.734375 17.8125,-7.734375 7.8515625,0 14.3203125,2.77734375 19.40625,8.328125 z m -15.953124999,29.640625 c 2.437499999,-2.40625 3.65625,-5.484375 3.65625,-9.234375 0,-3.75 -1.167968751,-6.8046875 -3.500000001,-9.171875 -2.3359375,-2.36328125 -5.40625,-3.546875 -9.21875,-3.546875 -3.6796875,0 -6.703125,1.203125 -9.078125,3.609375 -2.3671875,2.3984375 -3.546875,5.43359375 -3.546875,9.109375 0,3.75 1.21875,6.828125 3.65625,9.234375 2.437500001,2.3984375 5.42578125,3.59375 8.96875,3.59375 3.601562501,0 6.625,-1.1953125 9.062500001,-3.59375 z"></path>
            <path style="fill: rgb(31, 44, 51);fill-opacity:1;fill-rule:nonzero;stroke:none;stroke-width:1.05303" d="m -377.288043432,342.400383836 c -5.0859375,-5.55078125 -7.625,-12.3515625 -7.625,-20.40625 0,-8.0625 2.5390625,-14.8828125 7.625,-20.46875 5.09375,-5.58203125 11.56640625,-8.375 19.421875,-8.375 7.20703125,0 13.14453125,2.26171875 17.8125,6.78125 v -5.1875 h 18.765625 v 54.390625 h -18.5625 v -6.15625 h -0.203125 c -4.66796875,5.16796875 -10.60546875,7.75 -17.8125,7.75 -7.85546875,0 -14.328125,-2.7734375 -19.421875,-8.328125 z m 15.96875,-29.625 c -2.4375,2.3984375 -3.65625,5.46875 -3.65625,9.21875 0,3.7421875 1.1640625,6.796875 3.5,9.171875 2.33203125,2.3671875 5.40625,3.546875 9.21875,3.546875 3.67578125,0 6.6953125,-1.1953125 9.0625,-3.59375 2.375,-2.40625 3.5625,-5.4453125 3.5625,-9.125 0,-3.75 -1.2265625,-6.8203125 -3.671875,-9.21875 -2.4375,-2.40625 -5.421875,-3.609375 -8.953125,-3.609375 -3.60546875,0 -6.625,1.203125 -9.0625,3.609375 z"></path>
        </g>
        <g style="stroke-width:1.3904">
            <path transform="translate(12,0)" d="m -377.288043432,443.130852586 c -5.0859375,-5.55078125 -7.625,-12.3515625 -7.625,-20.40625 0,-8.0625 2.5390625,-14.8828125 7.625,-20.46875 5.09375,-5.58203125 11.56640625,-8.375 19.421875,-8.375 7.20703125,0 13.14453125,2.26171875 17.8125,6.78125 v -41.984375 h 18.765625 v 91.1875 h -18.5625 v -6.15625 h -0.203125 c -4.66796875,5.16796875 -10.60546875,7.75 -17.8125,7.75 -7.85546875,0 -14.328125,-2.7734375 -19.421875,-8.328125 z m 15.96875,-29.625 c -2.4375,2.3984375 -3.65625,5.46875 -3.65625,9.21875 0,3.7421875 1.1640625,6.796875 3.5,9.171875 2.33203125,2.3671875 5.40625,3.546875 9.21875,3.546875 3.67578125,0 6.6953125,-1.1953125 9.0625,-3.59375 2.375,-2.40625 3.5625,-5.4453125 3.5625,-9.125 0,-3.75 -1.2265625,-6.8203125 -3.671875,-9.21875 -2.4375,-2.40625 -5.421875,-3.609375 -8.953125,-3.609375 -3.60546875,0 -6.625,1.203125 -9.0625,3.609375 z m 88.6953125,-18.03125 h 21.625 l -42.734375,81.953125 h -21.625 l 18.765625,-36.046875 -25.765625,-45.90625 h 21.640625 l 15.15625,27.890625 z m 20.56640625,54.390625 v -54.390625 h 18.765625 v 5.71875 h 0.21875 c 4.875,-4.875 10.06640625,-7.3125 15.578125,-7.3125 2.6875,0 5.3515625,0.35546875 8,1.0625 2.65625,0.7109375 5.203125,1.80859375 7.640625,3.296875 2.4375,1.48046875 4.4140625,3.578125 5.9375,6.296875 1.51953125,2.71875 2.28125,5.8828125 2.28125,9.484375 v 35.84375 h -18.765625 v -30.75 c 0,-2.8203125 -0.90234375,-5.296875 -2.703125,-7.421875 -1.8046875,-2.125 -4.15234375,-3.1875 -7.046875,-3.1875 -2.8359375,0 -5.40234375,1.1015625 -7.703125,3.296875 -2.29296875,2.1875 -3.4375,4.625 -3.4375,7.3125 v 30.75 z m 68.48828125,-6.734375 c -5.0859375,-5.55078125 -7.625,-12.3515625 -7.625,-20.40625 0,-8.0625 2.5390625,-14.8828125 7.625,-20.46875 5.09375,-5.58203125 11.56640625,-8.375 19.421875,-8.375 7.20703125,0 13.14453125,2.26171875 17.8125,6.78125 v -5.1875 h 18.765625 v 54.390625 h -18.5625 v -6.15625 h -0.203125 c -4.66796875,5.16796875 -10.60546875,7.75 -17.8125,7.75 -7.85546875,0 -14.328125,-2.7734375 -19.421875,-8.328125 z m 15.96875,-29.625 c -2.4375,2.3984375 -3.65625,5.46875 -3.65625,9.21875 0,3.7421875 1.1640625,6.796875 3.5,9.171875 2.33203125,2.3671875 5.40625,3.546875 9.21875,3.546875 3.67578125,0 6.6953125,-1.1953125 9.0625,-3.59375 2.375,-2.40625 3.5625,-5.4453125 3.5625,-9.125 0,-3.75 -1.2265625,-6.8203125 -3.671875,-9.21875 -2.4375,-2.40625 -5.421875,-3.609375 -8.953125,-3.609375 -3.60546875,0 -6.625,1.203125 -9.0625,3.609375 z m 0,0" style="fill: rgb(31, 44, 51);fill-opacity:1;fill-rule:nonzero;stroke:none;stroke-width:1.05303"></path>
            <path transform="translate(-25.5,0)" style="fill: rgb(31, 44, 51);fill-opacity:1;fill-rule:nonzero;stroke:none;stroke-width:1.05303" d="m 21.7236753233,395.474602586 v 54.390625 h 18.765625 v -54.390625 z m 55.67578125,13.78125 c -3.5429687501,0 -6.5859375001,1.30859375 -9.1250000001,3.921875 -2.5429687499,2.6171875 -3.8124999999,5.76171875 -3.8124999999,9.4375 0,3.75 1.26953125,6.93359375 3.8124999999,9.546875 2.5390625,2.6171875 5.58203125,3.921875 9.1250000001,3.921875 1.6953124999,0 3.30078125,-0.2109375 4.8124999999,-0.640625 1.5195312501,-0.42578125 2.6328125001,-0.84765625 3.3437500001,-1.265625 l 0.9531249999,-0.640625 6.3593750001,13.046875 c -0.4921875004,0.35546875 -1.1796875002,0.796875 -2.0625,1.328125 -0.8867187501,0.5234375 -2.9023437501,1.2421875 -6.0468750001,2.15625 -3.1484374999,0.92578125 -6.5234374999,1.390625 -10.1249999999,1.390625 -7.9921875,0 -15.0078125001,-2.8046875 -21.0468750001,-8.421875 -6.0429687499,-5.625 -9.0624999999,-12.359375 -9.0624999999,-20.203125 0,-7.9140625 3.01953125,-14.71875 9.0624999999,-20.40625 6.0390625,-5.6953125 13.0546875001,-8.546875 21.0468750001,-8.546875 3.6015625,0 6.9257812499,0.4296875 9.9687499999,1.28125 3.0390625,0.84375 5.1953125001,1.6875 6.4687500001,2.53125 l 1.796875,1.28125 -6.3593750001,12.828125 c -2.3359374999,-1.6953125 -5.3710937499,-2.546875 -9.1093749999,-2.546875 z m 41.4453125007,-15.375 c 3.113281249,0 6.191406249,0.35546875 9.234375,1.0625 3.039062499,0.7109375 5.300781249,1.41796875 6.781249999,2.125 l 2.234375,1.046875 -6.15625,12.3125 c -4.2421875,-2.26953125 -8.2734375,-3.40625 -12.093749999,-3.40625 -2.117187501,0 -3.6171875,0.234375 -4.5,0.703125 -0.886718751,0.4609375 -1.328125001,1.32421875 -1.328125001,2.59375 0,0.28125 0.03515625,0.5625 0.109375,0.84375 0.0703125,0.28125 0.210937501,0.546875 0.421875,0.796875 0.207031251,0.25 0.3984375,0.46484375 0.578125,0.640625 0.17578125,0.1796875 0.4765625,0.37109375 0.90625,0.578125 0.42578125,0.2109375 0.7578125,0.37109375 1,0.484375 0.25,0.10546875 0.65625,0.26171875 1.21875,0.46875 0.5703125,0.2109375 1,0.37109375 1.28125,0.484375 0.281250001,0.10546875 0.753906251,0.265625 1.421875,0.484375 0.67578125,0.2109375 1.191406251,0.34375 1.546875,0.40625 2.1875,0.63671875 4.09375,1.34375 5.71875,2.125 1.6328125,0.78125 3.3515625,1.84375 5.15625,3.1875 1.80078125,1.34375 3.1953125,3.04296875 4.1875,5.09375 0.98828125,2.04296875 1.484375,4.37109375 1.484375,6.984375 0,12.375 -8.589843749,18.5625 -25.765625,18.5625 -3.8984375,0 -7.59375,-0.6015625 -11.09375,-1.796875 -3.4921874995,-1.20703125 -6.0156250001,-2.41015625 -7.5781249998,-3.609375 l -2.3281249997,-1.90625 7.6406249995,-12.84375 c 0.5625000005,0.5 1.30078125,1.08984375 2.21875,1.765625 0.9140625,0.66796875 2.578125,1.5859375 4.984375,2.75 2.40625,1.16796875 4.48828125,1.75 6.250000001,1.75 3.894531249,0 5.843749999,-1.3046875 5.843749999,-3.921875 0,-1.20703125 -0.49609375,-2.14453125 -1.484375,-2.8125 -0.9921875,-0.67578125 -2.671875,-1.4375 -5.046875,-2.28125 -2.3671875,-0.84375 -4.21875,-1.6171875 -5.5625,-2.328125 -3.3984375,-1.76953125 -6.0859375,-3.765625 -8.0624999999,-5.984375 -1.9804687498,-2.2265625 -2.9687500002,-5.1796875 -2.9687500002,-8.859375 0,-5.51953125 2.1328125002,-9.81640625 6.4062500011,-12.890625 4.281249999,-3.0703125 10.0625,-4.609375 17.34375,-4.609375 z"></path>
        </g>
    </g>
    <polyline style="fill:none; stroke:rgb(31, 44, 51); stroke-width:4px;" points="210.0,146.0 210.5,142.7 211.1,139.4 211.6,136.3 212.2,133.3 212.7,130.3 213.2,127.5 213.8,124.7 214.3,122.1 214.9,119.5 215.4,117.1 215.9,114.7 216.5,112.5 217.0,110.3 217.6,108.3 218.1,106.3 218.6,104.4 219.2,102.7 219.7,101.0 220.3,99.4 220.8,98.0 221.3,96.6 221.9,95.3 222.4,94.2 223.0,93.1 223.5,92.1 224.0,91.2 224.6,90.4 225.1,89.7 225.7,89.2 226.2,88.7 226.7,88.3 227.3,88.0 227.8,87.8 228.4,87.7 228.9,87.7 229.4,87.7 230.0,87.8 230.5,88.0 231.1,88.3 231.6,88.7 232.1,89.2 232.7,89.7 233.2,90.4 233.8,91.2 234.3,92.1 234.8,93.1 235.4,94.2 235.9,95.3 236.5,96.6 237.0,98.0 237.5,99.4 238.1,101.0 238.6,102.7 239.2,104.4 239.7,106.3 240.2,108.3 240.8,110.3 241.3,112.5 241.9,114.7 242.4,117.1 242.9,119.5 243.5,122.1 244.0,124.7 244.6,127.5 245.1,130.3 245.6,133.3 246.2,136.3 246.7,139.4 247.3,142.7 247.8,146.0 248.3,143.7 248.8,141.5 249.3,139.4 249.7,137.4 250.2,135.5 250.7,133.7 251.2,131.9 251.7,130.3 252.2,128.8 252.7,127.4 253.1,126.1 253.6,124.8 254.1,123.7 254.6,122.7 255.1,121.7 255.6,120.9 256.1,120.2 256.5,119.5 257.0,119.0 257.5,118.6 258.0,118.2 258.5,118.0 259.0,117.8 259.5,117.8 260.0,117.8 260.4,118.0 260.9,118.2 261.4,118.6 261.9,119.0 262.4,119.5 262.9,120.2 263.4,120.9 263.8,121.7 264.3,122.7 264.8,123.7 265.3,124.8 265.8,126.1 266.3,127.4 266.8,128.8 267.2,130.3 267.7,131.9 268.2,133.7 268.7,135.5 269.2,137.4 269.7,139.4 270.2,141.5 270.6,143.7"></polyline>
    <circle cx="180" cy="23" r="9" style="fill: rgb(237, 27, 47);" opacity="1"></circle>
    <circle cx="288.1866" cy="159.5681" r="9" style="fill: rgb(31, 44, 51);" opacity="1"></circle>
</svg>